<svg width="40" height="40" viewBox="0 0 40 40" fill="none" xmlns="http://www.w3.org/2000/svg">
<path d="M10.176 2.56V9.824H19.872V0C16.352 0 13.024 0.96 10.176 2.56Z" fill="#5A909C"/>
<path d="M0.0319824 19.84H9.85598V10.144H2.59198C0.991982 12.992 0.0319824 16.32 0.0319824 19.84Z" fill="#5A909C"/>
<path d="M19.872 10.144H10.176V19.84H19.872V10.144Z" fill="#5A909C"/>
<path d="M19.872 20.16H10.176V29.856H19.872V20.16Z" fill="#5A909C"/>
<path d="M30.176 9.82402H37.248C35.52 6.91202 33.088 4.48001 30.176 2.75201V9.82402Z" fill="#5A909C"/>
<path d="M20.192 0V9.824H29.888V2.56C27.008 0.96 23.712 0 20.192 0Z" fill="#5A909C"/>
<path d="M9.85598 20.16H0.0319824C0.0639824 23.68 0.991979 26.976 2.62398 29.856H9.85598V20.16Z" fill="#5A909C"/>
<path d="M29.888 10.144H20.192V19.84H29.888V10.144Z" fill="#5A909C"/>
<path d="M19.872 40V30.144H10.176V37.408C13.024 39.008 16.352 39.968 19.872 40Z" fill="#5A909C"/>
<path d="M29.856 30.144H20.16V39.968C23.68 39.936 26.976 39.008 29.856 37.376V30.144Z" fill="#5A909C"/>
<path d="M9.856 9.82402V2.75201C6.944 4.48001 4.512 6.91202 2.784 9.82402H9.856Z" fill="#5A909C"/>
<path d="M9.856 30.144H2.784C4.512 33.056 6.944 35.488 9.856 37.216V30.144Z" fill="#5A909C"/>
<path d="M30.176 30.144V37.216C33.088 35.488 35.52 33.056 37.248 30.144H30.176Z" fill="#5A909C"/>
<path d="M29.888 20.16H20.192V29.856H29.888V20.16Z" fill="#5A909C"/>
<path d="M40 20.16H30.176V29.824H37.44C39.04 26.976 40 23.68 40 20.16Z" fill="#5A909C"/>
<path d="M30.176 10.144V19.84H40C39.968 16.32 39.04 13.024 37.408 10.144H30.176Z" fill="#5A909C"/>
</svg>
